<svg width="18" height="18" viewBox="0 0 18 18" fill="white" xmlns="http://www.w3.org/2000/svg">
<path d="M17.5848 9.08038C17.5848 9.45621 17.4407 9.81951 17.1713 10.0826C16.9081 10.3519 16.5447 10.5023 16.1687 10.5023H10.5041V16.1648C10.5041 16.5406 10.3537 16.9039 10.0843 17.167C9.82111 17.4301 9.46394 17.5804 9.08797 17.5804C8.712 17.5804 8.34857 17.4301 8.08539 17.167C7.81595 16.9039 7.66556 16.5406 7.66556 16.1648V10.5023H2.00098C1.62502 10.5023 1.26158 10.3519 0.998403 10.0826C0.735226 9.81951 0.584839 9.45621 0.584839 9.08038C0.584839 8.70455 0.735226 8.34752 0.998403 8.07817C1.26158 7.81509 1.62502 7.66476 2.00098 7.66476H7.66556V2.00227C7.66556 1.62644 7.81595 1.26314 8.08539 1.00006C8.34857 0.730715 8.712 0.580383 9.08797 0.580383C9.46394 0.580383 9.82111 0.730715 10.0843 1.00006C10.3537 1.26314 10.5041 1.62644 10.5041 2.00227V7.66476H16.1687C16.5447 7.66476 16.9081 7.81509 17.1713 8.07817C17.4407 8.34752 17.5848 8.70455 17.5848 9.08038Z" />
</svg>
